<svg id="グループ_75032" data-name="グループ 75032" xmlns="http://www.w3.org/2000/svg" width="65" height="65" viewBox="0 0 65 65">
  <path id="パス_32508" data-name="パス 32508" d="M117.222,118.372H99V90.4h22.1v27.972" transform="translate(-77.55 -70.813)" fill="none" stroke="#333" stroke-linecap="round" stroke-linejoin="round" stroke-width="1.3"/>
  <path id="パス_32509" data-name="パス 32509" d="M129.6,194.875V188.7h8.732v4.442" transform="translate(-101.52 -147.815)" fill="none" stroke="#333" stroke-linecap="round" stroke-linejoin="round" stroke-width="1.3"/>
  <rect id="長方形_7267" data-name="長方形 7267" width="15.318" height="2.997" transform="translate(24.852 16.575)" stroke-width="1.3" stroke="#333" stroke-linecap="round" stroke-linejoin="round" fill="none"/>
  <path id="パス_32510" data-name="パス 32510" d="M113.4,106.155V104.4h1.755" transform="translate(-88.83 -81.78)" fill="none" stroke="#333" stroke-linecap="round" stroke-linejoin="round" stroke-width="1.3"/>
  <path id="パス_32511" data-name="パス 32511" d="M132.5,106.155V104.4h1.733" transform="translate(-103.792 -81.78)" fill="none" stroke="#333" stroke-linecap="round" stroke-linejoin="round" stroke-width="1.3"/>
  <path id="パス_32512" data-name="パス 32512" d="M113.4,124.033V122.3h1.755" transform="translate(-88.83 -95.802)" fill="none" stroke="#333" stroke-linecap="round" stroke-linejoin="round" stroke-width="1.3"/>
  <path id="パス_32513" data-name="パス 32513" d="M132.5,124.033V122.3h1.733" transform="translate(-103.792 -95.802)" fill="none" stroke="#333" stroke-linecap="round" stroke-linejoin="round" stroke-width="1.3"/>
  <path id="パス_32514" data-name="パス 32514" d="M113.4,141.855V140.1h1.755" transform="translate(-88.83 -109.745)" fill="none" stroke="#333" stroke-linecap="round" stroke-linejoin="round" stroke-width="1.3"/>
  <path id="パス_32515" data-name="パス 32515" d="M132.5,141.855V140.1h1.733" transform="translate(-103.792 -109.745)" fill="none" stroke="#333" stroke-linecap="round" stroke-linejoin="round" stroke-width="1.3"/>
  <path id="パス_32516" data-name="パス 32516" d="M113.4,159.755V158h1.755" transform="translate(-88.83 -123.767)" fill="none" stroke="#333" stroke-linecap="round" stroke-linejoin="round" stroke-width="1.3"/>
  <path id="パス_32517" data-name="パス 32517" d="M132.5,159.755V158h1.733" transform="translate(-103.792 -123.767)" fill="none" stroke="#333" stroke-linecap="round" stroke-linejoin="round" stroke-width="1.3"/>
  <path id="パス_32518" data-name="パス 32518" d="M151.7,106.155V104.4h1.755" transform="translate(-118.832 -81.78)" fill="none" stroke="#333" stroke-linecap="round" stroke-linejoin="round" stroke-width="1.3"/>
  <path id="パス_32519" data-name="パス 32519" d="M170.7,106.155V104.4h1.755" transform="translate(-133.715 -81.78)" fill="none" stroke="#333" stroke-linecap="round" stroke-linejoin="round" stroke-width="1.3"/>
  <path id="パス_32520" data-name="パス 32520" d="M151.7,124.033V122.3h1.755" transform="translate(-118.832 -95.802)" fill="none" stroke="#333" stroke-linecap="round" stroke-linejoin="round" stroke-width="1.3"/>
  <path id="パス_32521" data-name="パス 32521" d="M170.7,124.033V122.3h1.755" transform="translate(-133.715 -95.802)" fill="none" stroke="#333" stroke-linecap="round" stroke-linejoin="round" stroke-width="1.3"/>
  <path id="パス_32522" data-name="パス 32522" d="M151.7,141.855V140.1h1.755" transform="translate(-118.832 -109.745)" fill="none" stroke="#333" stroke-linecap="round" stroke-linejoin="round" stroke-width="1.3"/>
  <path id="パス_32523" data-name="パス 32523" d="M170.7,141.855V140.1h1.755" transform="translate(-133.715 -109.745)" fill="none" stroke="#333" stroke-linecap="round" stroke-linejoin="round" stroke-width="1.3"/>
  <path id="パス_32524" data-name="パス 32524" d="M151.7,159.755V158h1.755" transform="translate(-118.832 -123.767)" fill="none" stroke="#333" stroke-linecap="round" stroke-linejoin="round" stroke-width="1.3"/>
  <path id="パス_32525" data-name="パス 32525" d="M170.7,159.755V158h1.755" transform="translate(-133.715 -123.767)" fill="none" stroke="#333" stroke-linecap="round" stroke-linejoin="round" stroke-width="1.3"/>
  <rect id="長方形_7268" data-name="長方形 7268" width="65" height="65" fill="none"/>
</svg>
