<svg id="グループ_75031" data-name="グループ 75031" xmlns="http://www.w3.org/2000/svg" width="65" height="65" viewBox="0 0 65 65">
  <path id="パス_32500" data-name="パス 32500" d="M95.4,154.2h2.752a.238.238,0,0,1,.238.26V163.8" transform="translate(-74.73 -120.79)" fill="none" stroke="#333" stroke-linecap="round" stroke-linejoin="round" stroke-width="1.083"/>
  <path id="パス_32501" data-name="パス 32501" d="M119.2,151.657v-12.7a.238.238,0,0,1,.238-.26h2.752a.238.238,0,0,1,.238.26v12.7" transform="translate(-93.37 -108.648)" fill="none" stroke="#333" stroke-linecap="round" stroke-linejoin="round" stroke-width="1.083"/>
  <path id="パス_32502" data-name="パス 32502" d="M194.1,131.217V113.06a.238.238,0,0,1,.238-.26h2.752a.238.238,0,0,1,.238.26v16.228" transform="translate(-152.041 -88.36)" fill="none" stroke="#333" stroke-linecap="round" stroke-linejoin="round" stroke-width="1.083"/>
  <path id="パス_32503" data-name="パス 32503" d="M169.1,152.44V139.96a.238.238,0,0,1,.238-.26h2.752a.238.238,0,0,1,.238.26v12.5" transform="translate(-132.458 -109.432)" fill="none" stroke="#333" stroke-linecap="round" stroke-linejoin="round" stroke-width="1.083"/>
  <path id="パス_32504" data-name="パス 32504" d="M144.2,143.588V128.66a.238.238,0,0,1,.238-.26h2.752a.238.238,0,0,1,.238.26v14.928" transform="translate(-112.953 -100.58)" fill="none" stroke="#333" stroke-linecap="round" stroke-linejoin="round" stroke-width="1.083"/>
  <path id="パス_32505" data-name="パス 32505" d="M121.1,87.78l2.622-.78-5.655,7.778-5.135-2.643L102.1,97.725" transform="translate(-79.978 -68.15)" fill="none" stroke="#333" stroke-linecap="round" stroke-linejoin="round" stroke-width="1.083"/>
  <line id="線_1005" data-name="線 1005" y1="2.795" transform="translate(43.745 18.85)" fill="none" stroke="#333" stroke-linecap="round" stroke-linejoin="round" stroke-width="1.083"/>
  <path id="パス_32506" data-name="パス 32506" d="M85,101.4v23.313h29.033" transform="translate(-66.583 -79.43)" fill="none" stroke="#333" stroke-linecap="round" stroke-linejoin="round" stroke-width="1.083"/>
  <rect id="長方形_7266" data-name="長方形 7266" width="65" height="65" fill="none"/>
</svg>
