<svg xmlns="http://www.w3.org/2000/svg" width="65" height="65" viewBox="0 0 65 65">
  <g id="icon_csr" transform="translate(32.5 32.5)">
    <g id="グループ_75036" data-name="グループ 75036" transform="translate(-32.5 -32.5)">
      <g id="グループ_75033" data-name="グループ 75033" transform="translate(32.977 31.655)">
        <path id="パス_32527" data-name="パス 32527" d="M154.627,194.453l-2.427-2.4,2.4-2.448" transform="translate(-152.2 -180.175)" fill="none" stroke="#000" stroke-linecap="round" stroke-linejoin="round" stroke-width="1.3"/>
        <path id="パス_32528" data-name="パス 32528" d="M158.3,157.908h9.793a2.275,2.275,0,0,0,1.972-3.38l-2.925-5.2-.368-.672-1.43-2.557" transform="translate(-156.978 -146.1)" fill="none" stroke="#000" stroke-linecap="round" stroke-miterlimit="10" stroke-width="1.3"/>
      </g>
      <g id="グループ_75034" data-name="グループ 75034" transform="translate(18.638 30.485)">
        <path id="パス_32529" data-name="パス 32529" d="M97.6,141.588l3.293-.888.91,3.293" transform="translate(-95.091 -140.7)" fill="none" stroke="#000" stroke-linecap="round" stroke-linejoin="round" stroke-width="1.3"/>
        <path id="パス_32530" data-name="パス 32530" d="M91.217,146.1l-4.9,8.493a2.275,2.275,0,0,0,1.95,3.4h9.078" transform="translate(-86.022 -144.93)" fill="none" stroke="#000" stroke-linecap="round" stroke-miterlimit="10" stroke-width="1.3"/>
      </g>
      <g id="グループ_75035" data-name="グループ 75035" transform="translate(25.48 18.194)">
        <path id="パス_32531" data-name="パス 32531" d="M173.282,118.3l-.867,3.315-3.315-.867" transform="translate(-157.942 -110.863)" fill="none" stroke="#000" stroke-linecap="round" stroke-linejoin="round" stroke-width="1.3"/>
        <path id="パス_32532" data-name="パス 32532" d="M131.358,93.621l-4.9-8.515a2.275,2.275,0,0,0-3.922-.022l-4.94,8.342" transform="translate(-117.6 -83.974)" fill="none" stroke="#000" stroke-linecap="round" stroke-miterlimit="10" stroke-width="1.3"/>
      </g>
      <rect id="長方形_7269" data-name="長方形 7269" width="65" height="65" fill="none"/>
    </g>
  </g>
</svg>
