<svg xmlns="http://www.w3.org/2000/svg" width="65" height="65" viewBox="0 0 65 65">
  <g id="グループ_77188" data-name="グループ 77188" transform="translate(-799 -146)">
    <g id="グループ_9695" data-name="グループ 9695" transform="translate(817.16 165.481)">
      <path id="パス_1897" data-name="パス 1897" d="M734.66,139.385h2.611v-.307h-.307a.309.309,0,0,0,.307.307v-.307h-.307V147.9a.542.542,0,1,0,1.084,0v-8.825a.779.779,0,0,0-.778-.778H734.66a.542.542,0,0,0,0,1.084Z" transform="translate(-731.974 -124.551)" fill="#fff"/>
      <path id="パス_1898" data-name="パス 1898" d="M743.339,145.82V133.837h-.306v.306a.306.306,0,0,0,.306-.306h-.306v.306h2.611v-.306h-.307a.307.307,0,0,0,.307.306v-.306h-.307V145.82a.542.542,0,1,0,1.084,0V133.837a.778.778,0,0,0-.777-.778h-2.611a.778.778,0,0,0-.778.778V145.82a.542.542,0,1,0,1.084,0Z" transform="translate(-735.21 -122.467)" fill="#fff"/>
      <path id="パス_1899" data-name="パス 1899" d="M768.926,142.169V125.026h-.306v.306a.307.307,0,0,0,.306-.306h-.306v.306h2.611v-.306h-.307a.307.307,0,0,0,.307.306v-.306h-.307v15.328a.542.542,0,1,0,1.084,0V125.026a.778.778,0,0,0-.777-.778H768.62a.779.779,0,0,0-.778.778v17.143a.542.542,0,1,0,1.084,0Z" transform="translate(-745.384 -118.963)" fill="#fff"/>
      <path id="パス_1900" data-name="パス 1900" d="M760.4,145.944V134.151h-.307v.306a.306.306,0,0,0,.307-.306h-.307v.306H762.7v-.306H762.4a.306.306,0,0,0,.306.306v-.306H762.4v11.793a.542.542,0,1,0,1.084,0V134.151a.779.779,0,0,0-.778-.778h-2.611a.779.779,0,0,0-.778.778v11.793a.542.542,0,1,0,1.084,0Z" transform="translate(-741.993 -122.592)" fill="#fff"/>
      <path id="パス_1901" data-name="パス 1901" d="M751.869,144.427V130.336h-.307v.306a.307.307,0,0,0,.307-.306h-.307v.306h2.611v-.306h-.306a.306.306,0,0,0,.306.306v-.306h-.306v14.091a.542.542,0,1,0,1.084,0V130.336a.78.78,0,0,0-.778-.778h-2.611a.78.78,0,0,0-.778.778v14.091a.542.542,0,1,0,1.084,0Z" transform="translate(-738.602 -121.075)" fill="#fff"/>
      <path id="パス_1902" data-name="パス 1902" d="M755.157,117.272l.96-.283-4.152,5.675-4.471-2.285a.542.542,0,0,0-.495,0l-10.3,5.285a.542.542,0,0,0,.5.965l10.051-5.158,4.635,2.369a.541.541,0,0,0,.684-.163l5.37-7.339a.542.542,0,0,0-.59-.84l-2.5.734a.542.542,0,0,0,.306,1.04Z" transform="translate(-732.884 -115.475)" fill="#fff"/>
      <path id="パス_1903" data-name="パス 1903" d="M771.607,118.66v-2.643a.542.542,0,1,0-1.084,0v2.643a.542.542,0,1,0,1.084,0" transform="translate(-746.45 -115.475)" fill="#fff"/>
      <path id="パス_1904" data-name="パス 1904" d="M730.559,120.892V142.91a.543.543,0,0,0,.542.542h27.6a.542.542,0,1,0,0-1.084H731.643V120.892a.542.542,0,0,0-1.084,0Z" transform="translate(-730.559 -117.413)" fill="#fff"/>
    </g>
    <path id="パス_1905" data-name="パス 1905" d="M756.409,144.424a31.3,31.3,0,1,1,6.441-6.849l.966.668a32.506,32.506,0,1,0-6.68,7.1l-.726-.923Z" transform="translate(94.438 58.715)" fill="#fff" opacity="0"/>
  </g>
</svg>
