<svg xmlns="http://www.w3.org/2000/svg" xmlns:xlink="http://www.w3.org/1999/xlink" width="95" height="95.001" viewBox="0 0 95 95.001">
  <defs>
    <clipPath id="clip-path">
      <rect width="95" height="95.001" fill="none"/>
    </clipPath>
  </defs>
  <g id="リピートグリッド_315" data-name="リピートグリッド 315" clip-path="url(#clip-path)">
    <g id="グループ_77188" data-name="グループ 77188" transform="translate(-917 -3812.831)">
      <g id="グループ_9715" data-name="グループ 9715" transform="translate(937.723 3834.797)">
        <path id="パス_1941" data-name="パス 1941" d="M763.639,711.134h-.858V718h.462l-.418-.217a.479.479,0,0,0-.044.217h.462l-.418-.217h0a1.568,1.568,0,0,1-.253.275,11.858,11.858,0,0,1-3.288,1.912,14.115,14.115,0,0,1-5.231,1.1,14.614,14.614,0,0,1-6.269-1.571,11.46,11.46,0,0,1-1.983-1.216,3.426,3.426,0,0,1-.468-.433l-.044-.056-.01-.016-.386.219h.431a.431.431,0,0,0-.045-.219l-.386.219h.431v-6.869a3.291,3.291,0,0,1,.3-1.5,2.669,2.669,0,0,1,1.409-1.209,15.235,15.235,0,0,1,2.727-.8,1.17,1.17,0,0,1,.246-.037h.02l.006-.025-.01.024h0l.006-.025-.01.024a1.724,1.724,0,0,1,.218.14c.139.094.281.183.425.268a6.471,6.471,0,0,0,6.7,0q.229-.134.447-.283l0,0a2.477,2.477,0,0,1,.208-.136l-.017-.036.009.039.009,0-.017-.036.009.039h.027a1.381,1.381,0,0,1,.262.034,9.64,9.64,0,0,1,3.379,1.1,2.311,2.311,0,0,1,.8.891,3.352,3.352,0,0,1,.3,1.529H764.5a5.047,5.047,0,0,0-.485-2.3,4.405,4.405,0,0,0-2.266-2.033,15.023,15.023,0,0,0-3.113-.877,2.994,2.994,0,0,0-.6-.068,1.719,1.719,0,0,0-.743.159,3.157,3.157,0,0,0-.445.27l0,0c-.113.077-.228.15-.343.217a4.753,4.753,0,0,1-4.969,0c-.112-.065-.221-.133-.329-.207a3.126,3.126,0,0,0-.453-.273,1.748,1.748,0,0,0-.744-.162,2.839,2.839,0,0,0-.631.081,11.781,11.781,0,0,0-3.925,1.392,3.994,3.994,0,0,0-1.359,1.519,5,5,0,0,0-.481,2.275V718a1.23,1.23,0,0,0,.15.574,2.736,2.736,0,0,0,.538.676,9.154,9.154,0,0,0,1.538,1.138,16.594,16.594,0,0,0,8.22,2.4,16.292,16.292,0,0,0,7.029-1.749,13.177,13.177,0,0,0,2.289-1.41,5.016,5.016,0,0,0,.718-.677,2.11,2.11,0,0,0,.258-.38,1.23,1.23,0,0,0,.15-.574v-6.869Z" transform="translate(-727.089 -671.721)" fill="#333"/>
        <path id="パス_1942" data-name="パス 1942" d="M759.683,697.521h-.858a8.255,8.255,0,0,1-1.454,4.316,6.051,6.051,0,0,1-1.517,1.588,2.659,2.659,0,0,1-3.287,0,6.931,6.931,0,0,1-2.124-2.635,7.761,7.761,0,0,1-.847-3.269,4.9,4.9,0,0,1,1.365-3.37,4.407,4.407,0,0,1,6.5,0,4.9,4.9,0,0,1,1.366,3.37h1.717a6.618,6.618,0,0,0-1.841-4.555,6.123,6.123,0,0,0-8.982,0,6.618,6.618,0,0,0-1.841,4.555,9.909,9.909,0,0,0,1.752,5.282,7.76,7.76,0,0,0,1.962,2.035,4.366,4.366,0,0,0,5.235,0,8.608,8.608,0,0,0,2.691-3.29,9.44,9.44,0,0,0,1.023-4.027Z" transform="translate(-727.286 -671.034)" fill="#333"/>
        <path id="パス_1943" data-name="パス 1943" d="M744.056,688.331a3.316,3.316,0,0,1,1.448-.961,17.759,17.759,0,0,1,2.458-.688,1.174,1.174,0,0,1,.245-.037h.02l.006-.025-.01.024h0l.006-.025-.01.024a1.671,1.671,0,0,1,.218.14c.139.093.281.183.425.267a6.465,6.465,0,0,0,6.7,0q.225-.13.445-.28a2.169,2.169,0,0,1,.209-.136l-.018-.039.009.042.01,0-.018-.039.009.042.027,0a1.472,1.472,0,0,1,.261.034,9.656,9.656,0,0,1,3.38,1.105,2.311,2.311,0,0,1,.8.891,3.352,3.352,0,0,1,.3,1.529v6.869a.858.858,0,0,0,1.717,0V690.2a5.047,5.047,0,0,0-.486-2.3,4.408,4.408,0,0,0-2.267-2.033,15.01,15.01,0,0,0-3.113-.876,3.053,3.053,0,0,0-.6-.069,1.74,1.74,0,0,0-.744.16,3.089,3.089,0,0,0-.447.273q-.167.113-.345.218a4.754,4.754,0,0,1-4.969,0q-.167-.1-.329-.208a3.364,3.364,0,0,0-.453-.273,1.728,1.728,0,0,0-.744-.161,2.782,2.782,0,0,0-.63.081,19.193,19.193,0,0,0-2.7.763,5.009,5.009,0,0,0-2.165,1.494.859.859,0,1,0,1.347,1.065Z" transform="translate(-727.039 -670.753)" fill="#333"/>
        <path id="パス_1944" data-name="パス 1944" d="M757.854,676.581H757a8.257,8.257,0,0,1-1.455,4.317,6.066,6.066,0,0,1-1.517,1.588,2.656,2.656,0,0,1-3.287,0,6.933,6.933,0,0,1-2.125-2.635,7.768,7.768,0,0,1-.847-3.27,4.9,4.9,0,0,1,1.366-3.369,4.408,4.408,0,0,1,6.5,0A4.9,4.9,0,0,1,757,676.581h1.717a6.614,6.614,0,0,0-1.842-4.555,6.125,6.125,0,0,0-8.982,0,6.618,6.618,0,0,0-1.841,4.555,9.916,9.916,0,0,0,1.752,5.283,7.764,7.764,0,0,0,1.962,2.035,4.362,4.362,0,0,0,5.235,0,8.6,8.6,0,0,0,2.691-3.291,9.446,9.446,0,0,0,1.023-4.028Z" transform="translate(-727.202 -670.066)" fill="#333"/>
        <path id="パス_1945" data-name="パス 1945" d="M740.3,716.053a13.173,13.173,0,0,1-3.562.525,14.62,14.62,0,0,1-6.267-1.57,11.466,11.466,0,0,1-1.984-1.216,3.3,3.3,0,0,1-.468-.433l-.044-.056-.01-.015-.387.219H728a.44.44,0,0,0-.044-.219l-.387.219H728v-6.87a3.287,3.287,0,0,1,.3-1.5,2.668,2.668,0,0,1,1.409-1.21,15.316,15.316,0,0,1,2.727-.8,1.178,1.178,0,0,1,.243-.036h.022l0-.023-.009.022h0l0-.023-.009.022a1.936,1.936,0,0,1,.217.139c.14.1.282.184.426.268a6.461,6.461,0,0,0,6.7,0q.227-.133.445-.28l0,0c.134-.093.2-.135.206-.135l-.018-.038.01.041.009,0-.018-.038.01.041h.027a1.369,1.369,0,0,1,.26.034,16.361,16.361,0,0,1,2.379.609,3.631,3.631,0,0,1,1.471.9.858.858,0,1,0,1.271-1.153,5.279,5.279,0,0,0-2.148-1.353,17.783,17.783,0,0,0-2.634-.683,3.057,3.057,0,0,0-.6-.068,1.732,1.732,0,0,0-.745.16,3.079,3.079,0,0,0-.446.272l0,0c-.114.077-.232.151-.349.219a4.748,4.748,0,0,1-4.969,0c-.111-.065-.22-.134-.329-.207a3.045,3.045,0,0,0-.452-.273,1.739,1.739,0,0,0-.746-.162,2.762,2.762,0,0,0-.628.08,11.758,11.758,0,0,0-3.926,1.393,3.97,3.97,0,0,0-1.359,1.519,5,5,0,0,0-.482,2.275v6.87a1.242,1.242,0,0,0,.151.574,2.7,2.7,0,0,0,.538.675,9.152,9.152,0,0,0,1.537,1.138,16.6,16.6,0,0,0,8.219,2.4,14.855,14.855,0,0,0,4.031-.589.859.859,0,1,0-.468-1.652Z" transform="translate(-726.288 -671.513)" fill="#333"/>
        <path id="パス_1946" data-name="パス 1946" d="M742.365,693.023h-.858a8.252,8.252,0,0,1-1.453,4.316,6.083,6.083,0,0,1-1.517,1.588,2.66,2.66,0,0,1-3.287,0,6.939,6.939,0,0,1-2.125-2.635,7.765,7.765,0,0,1-.847-3.269,4.9,4.9,0,0,1,1.365-3.37,4.409,4.409,0,0,1,6.5,0,4.9,4.9,0,0,1,1.365,3.37h1.717a6.611,6.611,0,0,0-1.841-4.555,6.124,6.124,0,0,0-8.982,0,6.62,6.62,0,0,0-1.841,4.556,9.91,9.91,0,0,0,1.752,5.282,7.752,7.752,0,0,0,1.963,2.035,4.365,4.365,0,0,0,5.234,0,8.612,8.612,0,0,0,2.692-3.291,9.44,9.44,0,0,0,1.022-4.027Z" transform="translate(-726.486 -670.826)" fill="#333"/>
        <path id="パス_1947" data-name="パス 1947" d="M762.253,702.976a3.293,3.293,0,0,1,.3-1.5,2.674,2.674,0,0,1,1.409-1.209,15.366,15.366,0,0,1,2.727-.8,1.115,1.115,0,0,1,.244-.036h.021l.006-.024-.01.023h0l.006-.024-.01.023a1.76,1.76,0,0,1,.219.14c.139.093.281.183.425.267a6.458,6.458,0,0,0,6.7,0c.153-.089.3-.182.444-.278l0,0c.133-.093.2-.135.206-.135l-.018-.039.01.042.009,0-.018-.039.01.042h.027a1.284,1.284,0,0,1,.26.034,9.621,9.621,0,0,1,3.38,1.1,2.307,2.307,0,0,1,.8.891,3.377,3.377,0,0,1,.3,1.528v6.871h.462l-.418-.218a.47.47,0,0,0-.044.218h.462l-.418-.218h0a1.564,1.564,0,0,1-.253.275,11.878,11.878,0,0,1-3.289,1.911,14.117,14.117,0,0,1-5.232,1.1,12.994,12.994,0,0,1-3.361-.47.858.858,0,1,0-.447,1.658,14.761,14.761,0,0,0,3.808.529,16.32,16.32,0,0,0,7.03-1.748,13.178,13.178,0,0,0,2.289-1.41,4.958,4.958,0,0,0,.718-.676,2.1,2.1,0,0,0,.258-.38,1.23,1.23,0,0,0,.151-.574v-6.871a5.058,5.058,0,0,0-.485-2.3,4.411,4.411,0,0,0-2.267-2.033,15.023,15.023,0,0,0-3.113-.877,2.988,2.988,0,0,0-.6-.068,1.73,1.73,0,0,0-.745.159,3.21,3.21,0,0,0-.446.273l0,0c-.117.079-.235.154-.351.221a4.748,4.748,0,0,1-4.969,0c-.111-.065-.22-.134-.329-.207a3.188,3.188,0,0,0-.453-.274,1.734,1.734,0,0,0-.745-.161,2.771,2.771,0,0,0-.629.08,11.777,11.777,0,0,0-3.926,1.393,3.988,3.988,0,0,0-1.359,1.52,4.993,4.993,0,0,0-.482,2.274.859.859,0,0,0,1.718,0Z" transform="translate(-727.872 -671.344)" fill="#333"/>
        <path id="パス_1948" data-name="パス 1948" d="M776.615,689.363h-.859a8.248,8.248,0,0,1-1.454,4.317,6.1,6.1,0,0,1-1.517,1.588,2.661,2.661,0,0,1-3.288,0,6.954,6.954,0,0,1-2.124-2.635,7.768,7.768,0,0,1-.847-3.27,4.9,4.9,0,0,1,1.365-3.369,4.409,4.409,0,0,1,6.5,0,4.9,4.9,0,0,1,1.365,3.369h1.717a6.613,6.613,0,0,0-1.841-4.555,6.125,6.125,0,0,0-8.982,0,6.618,6.618,0,0,0-1.841,4.555,9.915,9.915,0,0,0,1.752,5.283,7.765,7.765,0,0,0,1.962,2.035,4.366,4.366,0,0,0,5.235,0,8.608,8.608,0,0,0,2.691-3.291,9.438,9.438,0,0,0,1.022-4.027Z" transform="translate(-728.069 -670.657)" fill="#333"/>
      </g>
      <path id="パス_1949" data-name="パス 1949" d="M780.339,730.547a45.745,45.745,0,1,1,9.414-10.01l1.412.976A47.509,47.509,0,1,0,781.4,731.9l-1.062-1.35Z" transform="translate(212.438 3165.795)" fill="#333" opacity="0"/>
    </g>
  </g>
</svg>
