<svg xmlns="http://www.w3.org/2000/svg" width="95.001" height="95.001" viewBox="0 0 95.001 95.001">
  <g id="グループ_77189" data-name="グループ 77189" transform="translate(-1157 -3812.831)">
    <g id="グループ_9714" data-name="グループ 9714" transform="translate(1180.365 3835.145)">
      <path id="パス_1928" data-name="パス 1928" d="M991.427,715.3v-.858H950.644v-19.1h39.924V715.3h.858v0h.858V694.477a.856.856,0,0,0-.858-.858H949.785a.858.858,0,0,0-.858.858V715.3a.86.86,0,0,0,.858.858h41.641a.858.858,0,0,0,.858-.858Z" transform="translate(-946.471 -671.503)" fill="#333"/>
      <path id="パス_1929" data-name="パス 1929" d="M959.291,698.635h25.195v.14a2.833,2.833,0,0,0,2.737,2.829l.276.01v6.612l-.443.019a2.526,2.526,0,0,0-2.417,2.4.858.858,0,0,0,1.715.085.809.809,0,0,1,.774-.768l1.266-.054a.857.857,0,0,0,.822-.857v-8.265a.858.858,0,0,0-.831-.858l-1.1-.036a1.115,1.115,0,0,1-1.078-1.113h-.3l.3,0v0h-.3l.3,0v-.013l.008-.982a.858.858,0,0,0-.858-.865h-26.06a.858.858,0,0,0,0,1.717Z" transform="translate(-946.91 -671.655)" fill="#333"/>
      <path id="パス_1930" data-name="パス 1930" d="M982.082,711.166h-24.46v-.037a2.631,2.631,0,0,0-2.487-2.568l-.683-.032v-7.012l.429-.025a2.847,2.847,0,0,0,2.336-1.476.859.859,0,0,0-1.506-.825,1.129,1.129,0,0,1-.928.588l-1.239.071a.858.858,0,0,0-.809.857v8.64a.857.857,0,0,0,.817.857l1.5.072a.924.924,0,0,1,.851.878l.013.883a.858.858,0,0,0,.858.846h25.305a.858.858,0,1,0,0-1.717Z" transform="translate(-946.647 -671.74)" fill="#333"/>
      <path id="パス_1931" data-name="パス 1931" d="M966.792,702.7h9.926a.858.858,0,0,0,0-1.717h-9.926a.858.858,0,0,0,0,1.717" transform="translate(-947.257 -671.843)" fill="#333"/>
      <path id="パス_1932" data-name="パス 1932" d="M961.97,706H981.1a.858.858,0,0,0,0-1.717H961.97a.858.858,0,0,0,0,1.717" transform="translate(-947.034 -671.996)" fill="#333"/>
      <path id="パス_1933" data-name="パス 1933" d="M973.392,709.55h5.81a.858.858,0,1,0,0-1.717h-5.81a.858.858,0,1,0,0,1.717" transform="translate(-947.562 -672.16)" fill="#333"/>
      <path id="パス_1934" data-name="パス 1934" d="M968.315,709.55h2.422a.858.858,0,0,0,0-1.717h-2.422a.858.858,0,1,0,0,1.717" transform="translate(-947.328 -672.16)" fill="#333"/>
      <path id="パス_1935" data-name="パス 1935" d="M948.7,690.645l-.344-.706,35.883-17.5,8.391,17.2-1.976,1.073a.858.858,0,0,0,.819,1.509l2.7-1.466a.859.859,0,0,0,.361-1.13l-9.127-18.714a.859.859,0,0,0-1.147-.395l-37.427,18.255a.858.858,0,0,0-.395,1.147l.72,1.477a.858.858,0,1,0,1.543-.753Z" transform="translate(-946.352 -670.431)" fill="#333"/>
      <path id="パス_1936" data-name="パス 1936" d="M956.108,689.976l-.34-.669L955,689.7l.376.772L980.12,678.4l.051.106a2.833,2.833,0,0,0,3.71,1.363l.252-.113,2.9,5.942-.389.212a2.524,2.524,0,0,0-1.121,3.215.858.858,0,0,0,1.578-.674.809.809,0,0,1,.36-1.032l1.113-.6a.857.857,0,0,0,.362-1.131l-3.622-7.429a.858.858,0,0,0-1.123-.407l-1.009.451a1.114,1.114,0,0,1-1.46-.536l-.423-.886a.859.859,0,0,0-1.151-.4l-25.519,12.448a.859.859,0,0,0-.388,1.161l.34.669a.859.859,0,0,0,1.531-.778Z" transform="translate(-946.712 -670.706)" fill="#333"/>
      <path id="パス_1937" data-name="パス 1937" d="M966.1,690.151l8.922-4.352a.858.858,0,0,0-.753-1.543l-8.921,4.352a.858.858,0,0,0,.753,1.543" transform="translate(-947.208 -671.066)" fill="#333"/>
      <path id="パス_1938" data-name="パス 1938" d="M971.741,691.69l10.752-5.3a.858.858,0,1,0-.758-1.539l-10.752,5.294a.858.858,0,0,0,.758,1.54" transform="translate(-947.468 -671.094)" fill="#333"/>
      <path id="パス_1939" data-name="パス 1939" d="M979.85,692.392l3.042-1.43a.858.858,0,0,0-.731-1.554l-3.042,1.43a.858.858,0,0,0,.731,1.554" transform="translate(-947.844 -671.304)" fill="#333"/>
    </g>
    <path id="パス_1940" data-name="パス 1940" d="M997.631,730.547a45.749,45.749,0,1,1,9.414-10.01l1.412.976a47.508,47.508,0,1,0-9.764,10.384l-1.062-1.35Z" transform="translate(235.146 3165.795)" fill="#333" opacity="0"/>
  </g>
</svg>
