<svg xmlns="http://www.w3.org/2000/svg" width="95.001" height="95.002" viewBox="0 0 95.001 95.002">
  <g id="グループ_77187" data-name="グループ 77187" transform="translate(-677 -3812.605)">
    <g id="グループ_9713" data-name="グループ 9713" transform="translate(699.674 3843.001)">
      <path id="パス_1919" data-name="パス 1919" d="M967.558,551.092l-2.008-.374h.007a27.641,27.641,0,0,0-10.465,0L951,551.51V525.718l4.417-.853a25.88,25.88,0,0,1,9.812,0l2.388.461a4.8,4.8,0,0,1,.908.268l.648.261a.707.707,0,0,1,.411.4l.807-.295-.857.062.113,1.551v25.417a.858.858,0,0,0,1.256.76h0a14.568,14.568,0,0,1,2.177-.817l-.251-.821.208.833.189-.047,2.554-.493a25.908,25.908,0,0,1,9.812,0l5.114.988a.859.859,0,0,0,1.021-.843V525.009a.858.858,0,0,0-.7-.843l-5.113-.987a27.636,27.636,0,0,0-10.464,0l-.064.015-2.466.673a.858.858,0,1,0,.452,1.656l2.466-.673-.226-.828.163.843a25.88,25.88,0,0,1,9.812,0l4.419.853V551.51l-4.093-.791a27.636,27.636,0,0,0-10.464,0l-2.576.5-.046.01-.213.053-.043.011a15.9,15.9,0,0,0-2.471.939l.4.761h.858V527.543l0-.062-.114-1.581-.051-.232a2.422,2.422,0,0,0-1.38-1.4l-.648-.261a6.565,6.565,0,0,0-1.227-.361l-2.388-.462a27.635,27.635,0,0,0-10.464,0l-5.112.987a.858.858,0,0,0-.7.843V552.55a.859.859,0,0,0,1.021.843l5.113-.987a25.908,25.908,0,0,1,9.812,0l.006,0,2.008.373a.858.858,0,1,0,.314-1.687Z" transform="translate(-945.796 -522.679)" fill="#333"/>
      <path id="パス_1920" data-name="パス 1920" d="M997.6,555.257V527.421a.858.858,0,1,0-1.717,0v27.836a.858.858,0,1,0,1.717,0" transform="translate(-947.951 -522.859)" fill="#333"/>
      <path id="パス_1921" data-name="パス 1921" d="M945.627,527.421v27.836a.858.858,0,0,0,.858.858h21.059l1.1.793a.858.858,0,0,0,.5.161h3.044a.853.853,0,0,0,.525-.178l1-.775h15.419a.858.858,0,0,0,0-1.717H973.428a.853.853,0,0,0-.524.179l-1,.774h-2.476l-1.1-.792a.86.86,0,0,0-.5-.162H947.344V527.421a.858.858,0,0,0-1.717,0Z" transform="translate(-945.627 -522.859)" fill="#333"/>
      <path id="パス_1922" data-name="パス 1922" d="M954.5,531.776l2.123-.653a12.519,12.519,0,0,1,7.237-.037l2.341.693a.858.858,0,0,0,.487-1.646l-2.341-.693a14.231,14.231,0,0,0-8.229.043l-2.123.652a.859.859,0,1,0,.5,1.641Z" transform="translate(-945.986 -522.964)" fill="#333"/>
      <path id="パス_1923" data-name="パス 1923" d="M954.5,535.4l2.123-.653a12.539,12.539,0,0,1,7.237-.037l2.341.693a.858.858,0,0,0,.487-1.646l-2.341-.693a14.252,14.252,0,0,0-8.229.043l-2.123.652a.859.859,0,1,0,.5,1.641Z" transform="translate(-945.986 -523.132)" fill="#333"/>
      <path id="パス_1924" data-name="パス 1924" d="M976.211,531.776l2.122-.653a12.516,12.516,0,0,1,7.236-.037l2.341.693a.858.858,0,0,0,.487-1.646l-2.342-.693a14.227,14.227,0,0,0-8.228.043l-2.123.652a.859.859,0,0,0,.506,1.641Z" transform="translate(-946.99 -522.964)" fill="#333"/>
      <path id="パス_1925" data-name="パス 1925" d="M976.211,535.4l2.122-.653a12.537,12.537,0,0,1,7.236-.037l2.341.693a.858.858,0,0,0,.487-1.646l-2.342-.693a14.249,14.249,0,0,0-8.228.043l-2.123.653a.858.858,0,0,0,.506,1.64Z" transform="translate(-946.99 -523.132)" fill="#333"/>
    </g>
    <path id="パス_1927" data-name="パス 1927" d="M997.631,574.321a45.755,45.755,0,1,1,9.414-10.011l1.412.977a47.518,47.518,0,1,0-9.764,10.383l-1.062-1.349Z" transform="translate(-244.854 3321.795)" fill="#333" opacity="0"/>
  </g>
</svg>
