<svg xmlns="http://www.w3.org/2000/svg" width="95" height="95.002" viewBox="0 0 95 95.002">
  <g id="グループ_77186" data-name="グループ 77186" transform="translate(-438 -3812.605)">
    <path id="パス_1926" data-name="パス 1926" d="M780.339,574.321a45.751,45.751,0,1,1,9.414-10.011l1.412.977A47.518,47.518,0,1,0,781.4,575.67l-1.062-1.349Z" transform="translate(-266.563 3321.795)" fill="#333" opacity="0"/>
    <g id="グループ_9716" data-name="グループ 9716" transform="translate(458.346 3835.4)">
      <path id="パス_1950" data-name="パス 1950" d="M732.336,531.4h17.915a.858.858,0,1,0,0-1.717H732.336a.858.858,0,1,0,0,1.717" transform="translate(-726.152 -515.403)" fill="#333"/>
      <path id="パス_1951" data-name="パス 1951" d="M732.336,535.211h17.915a.858.858,0,1,0,0-1.716H732.336a.858.858,0,1,0,0,1.716" transform="translate(-726.152 -515.579)" fill="#333"/>
      <path id="パス_1952" data-name="パス 1952" d="M732.336,539.019h6.778a.858.858,0,1,0,0-1.717h-6.778a.858.858,0,1,0,0,1.717" transform="translate(-726.152 -515.755)" fill="#333"/>
      <path id="パス_1953" data-name="パス 1953" d="M732.336,542.827h6.778a.858.858,0,1,0,0-1.717h-6.778a.858.858,0,1,0,0,1.717" transform="translate(-726.152 -515.931)" fill="#333"/>
      <path id="パス_1954" data-name="パス 1954" d="M732.336,546.634h6.778a.858.858,0,1,0,0-1.717h-6.778a.858.858,0,1,0,0,1.717" transform="translate(-726.152 -516.107)" fill="#333"/>
      <path id="パス_1955" data-name="パス 1955" d="M753.874,562.733H727.956a.344.344,0,0,1-.345-.345V523.88a.345.345,0,0,1,.345-.345h25.917a.345.345,0,0,1,.345.345v11.363a.858.858,0,0,0,1.717,0V523.88a2.061,2.061,0,0,0-2.062-2.062H727.956a2.061,2.061,0,0,0-2.062,2.062v38.507a2.061,2.061,0,0,0,2.062,2.062h25.917a.858.858,0,1,0,0-1.717Z" transform="translate(-725.894 -515.039)" fill="#333"/>
      <path id="パス_1956" data-name="パス 1956" d="M731.165,522.512v-2.185a.346.346,0,0,1,.344-.346h25.919a.347.347,0,0,1,.345.346v14.752a.858.858,0,1,0,1.717,0V520.327a2.063,2.063,0,0,0-2.062-2.063H731.509a2.062,2.062,0,0,0-2.061,2.063v2.185a.858.858,0,0,0,1.717,0Z" transform="translate(-726.058 -514.874)" fill="#333"/>
      <path id="パス_1957" data-name="パス 1957" d="M734.972,518.958v-2.185a.348.348,0,0,1,.345-.346h25.919a.347.347,0,0,1,.344.346v18.142a.859.859,0,0,0,1.718,0V516.773a2.062,2.062,0,0,0-2.061-2.063H735.317a2.063,2.063,0,0,0-2.062,2.063v2.185a.858.858,0,0,0,1.717,0Z" transform="translate(-726.234 -514.71)" fill="#333"/>
      <path id="パス_1958" data-name="パス 1958" d="M768.759,550.2H767.9a5.438,5.438,0,1,1-1.593-3.844A5.411,5.411,0,0,1,767.9,550.2h1.717a7.153,7.153,0,1,0-7.153,7.152,7.155,7.155,0,0,0,7.153-7.152Z" transform="translate(-727.254 -516.02)" fill="#333"/>
      <path id="パス_1959" data-name="パス 1959" d="M764.963,550.536l-4.012-2.316v4.633Z" transform="translate(-727.515 -516.259)" fill="#333"/>
      <path id="パス_1960" data-name="パス 1960" d="M765.171,550.4l.429-.744-4.011-2.316a.858.858,0,0,0-1.288.743v4.633a.858.858,0,0,0,1.288.743l4.011-2.317a.858.858,0,0,0,0-1.487l-.429.744-.429-.744-2.724,1.573v-1.659l2.724,1.573.429-.743-.429-.744Z" transform="translate(-727.485 -516.213)" fill="#333"/>
      <path id="パス_1961" data-name="パス 1961" d="M778.587,560.7v-.858h-33.4a.681.681,0,0,1-.68-.679V540.812a.683.683,0,0,1,.68-.68h33.4a.683.683,0,0,1,.68.68v18.354a.681.681,0,0,1-.68.679v1.717a2.4,2.4,0,0,0,2.4-2.4V540.812a2.4,2.4,0,0,0-2.4-2.4h-33.4a2.4,2.4,0,0,0-2.4,2.4v18.354a2.4,2.4,0,0,0,2.4,2.4h33.4Z" transform="translate(-726.675 -515.806)" fill="#333"/>
    </g>
  </g>
</svg>
